<svg xmlns="http://www.w3.org/2000/svg" width="1600" height="900"><defs><radialGradient id="g"><stop stop-color="#183a70"/><stop offset="1" stop-color="#050814"/></radialGradient></defs><rect width="100%" height="100%" fill="url(#g)"/><g fill="white" opacity=".65"><circle cx="20" cy="20" r="1.0"/><circle cx="193" cy="117" r="1.5"/><circle cx="366" cy="214" r="2.0"/><circle cx="539" cy="311" r="1.0"/><circle cx="712" cy="408" r="1.5"/><circle cx="885" cy="505" r="2.0"/><circle cx="1058" cy="602" r="1.0"/><circle cx="1231" cy="699" r="1.5"/><circle cx="1404" cy="796" r="2.0"/><circle cx="27" cy="93" r="1.0"/><circle cx="200" cy="190" r="1.5"/><circle cx="373" cy="287" r="2.0"/><circle cx="546" cy="384" r="1.0"/><circle cx="719" cy="481" r="1.5"/><circle cx="892" cy="578" r="2.0"/><circle cx="1065" cy="675" r="1.0"/><circle cx="1238" cy="772" r="1.5"/><circle cx="1411" cy="69" r="2.0"/><circle cx="34" cy="166" r="1.0"/><circle cx="207" cy="263" r="1.5"/><circle cx="380" cy="360" r="2.0"/><circle cx="553" cy="457" r="1.0"/><circle cx="726" cy="554" r="1.5"/><circle cx="899" cy="651" r="2.0"/><circle cx="1072" cy="748" r="1.0"/><circle cx="1245" cy="45" r="1.5"/><circle cx="1418" cy="142" r="2.0"/><circle cx="41" cy="239" r="1.0"/><circle cx="214" cy="336" r="1.5"/><circle cx="387" cy="433" r="2.0"/><circle cx="560" cy="530" r="1.0"/><circle cx="733" cy="627" r="1.5"/><circle cx="906" cy="724" r="2.0"/><circle cx="1079" cy="21" r="1.0"/><circle cx="1252" cy="118" r="1.5"/><circle cx="1425" cy="215" r="2.0"/><circle cx="48" cy="312" r="1.0"/><circle cx="221" cy="409" r="1.5"/><circle cx="394" cy="506" r="2.0"/><circle cx="567" cy="603" r="1.0"/><circle cx="740" cy="700" r="1.5"/><circle cx="913" cy="797" r="2.0"/></g></svg>